<svg width="27" height="27" viewBox="0 0 27 27" fill="none" xmlns="http://www.w3.org/2000/svg">
<path d="M13.5 2.19375C7.29 2.19375 2.25 7.23375 2.25 13.4437C2.25 19.6537 7.29 24.6937 13.5 24.6937H19.125V22.4437H13.5C8.6175 22.4437 4.5 18.3262 4.5 13.4437C4.5 8.56125 8.6175 4.44375 13.5 4.44375C18.3825 4.44375 22.5 8.56125 22.5 13.4437V15.0525C22.5 15.9412 21.7013 16.8187 20.8125 16.8187C19.9237 16.8187 19.125 15.9412 19.125 15.0525V13.4437C19.125 10.3387 16.605 7.81875 13.5 7.81875C10.395 7.81875 7.875 10.3387 7.875 13.4437C7.875 16.5487 10.395 19.0687 13.5 19.0687C15.0525 19.0687 16.47 18.4387 17.4825 17.415C18.2137 18.4162 19.4737 19.0687 20.8125 19.0687C23.0288 19.0687 24.75 17.2687 24.75 15.0525V13.4437C24.75 7.23375 19.71 2.19375 13.5 2.19375ZM13.5 16.8187C11.6325 16.8187 10.125 15.3112 10.125 13.4437C10.125 11.5762 11.6325 10.0687 13.5 10.0687C15.3675 10.0687 16.875 11.5762 16.875 13.4437C16.875 15.3112 15.3675 16.8187 13.5 16.8187Z" fill="#212121"/>
</svg>