<svg xmlns="http://www.w3.org/2000/svg" width="50" height="50" viewBox="0 0 50 50">
  <g id="ionicons-v5-q-2" transform="translate(-26 -26)">
    <path id="Path_6" data-name="Path 6" d="M236.391,36A2.391,2.391,0,0,1,234,33.609V28.391a2.391,2.391,0,1,1,4.783,0v5.217A2.391,2.391,0,0,1,236.391,36Z" transform="translate(-185.391)" fill="rgba(103,103,103,0.51)"/>
    <path id="Path_7" data-name="Path 7" d="M236.391,404A2.391,2.391,0,0,1,234,401.609v-5.217a2.391,2.391,0,1,1,4.783,0v5.217A2.391,2.391,0,0,1,236.391,404Z" transform="translate(-185.391 -328)" fill="rgba(103,103,103,0.51)"/>
    <path id="Path_8" data-name="Path 8" d="M349.533,95.4a2.391,2.391,0,0,1-1.691-4.082l3.689-3.689a2.391,2.391,0,1,1,3.382,3.382L351.224,94.7A2.384,2.384,0,0,1,349.533,95.4Z" transform="translate(-286.236 -54.303)" fill="rgba(103,103,103,0.51)"/>
    <path id="Path_9" data-name="Path 9" d="M89.313,355.607a2.391,2.391,0,0,1-1.69-4.083l3.689-3.689a2.391,2.391,0,1,1,3.382,3.382L91,354.906A2.385,2.385,0,0,1,89.313,355.607Z" transform="translate(-54.3 -286.229)" fill="rgba(103,103,103,0.51)"/>
    <path id="Path_10" data-name="Path 10" d="M401.609,238.783h-5.217a2.391,2.391,0,0,1,0-4.783h5.217a2.391,2.391,0,0,1,0,4.783Z" transform="translate(-328 -185.391)" fill="rgba(103,103,103,0.51)"/>
    <path id="Path_11" data-name="Path 11" d="M33.609,238.783H28.391a2.391,2.391,0,1,1,0-4.783h5.217a2.391,2.391,0,0,1,0,4.783Z" transform="translate(0 -185.391)" fill="rgba(103,103,103,0.51)"/>
    <path id="Path_12" data-name="Path 12" d="M353.216,355.607a2.385,2.385,0,0,1-1.691-.7l-3.689-3.689a2.391,2.391,0,1,1,3.382-3.382l3.689,3.689a2.391,2.391,0,0,1-1.69,4.083Z" transform="translate(-286.229 -286.229)" fill="rgba(103,103,103,0.51)"/>
    <path id="Path_13" data-name="Path 13" d="M93.005,95.4a2.379,2.379,0,0,1-1.69-.7l-3.689-3.689a2.391,2.391,0,1,1,3.382-3.382L94.7,91.315A2.391,2.391,0,0,1,93.005,95.4Z" transform="translate(-54.303 -54.303)" fill="rgba(103,103,103,0.51)"/>
    <path id="Path_14" data-name="Path 14" d="M165.087,176.174a11.087,11.087,0,1,1,11.087-11.087A11.087,11.087,0,0,1,165.087,176.174Z" transform="translate(-114.087 -114.087)" fill="rgba(103,103,103,0.51)"/>
  </g>
</svg>
