<svg width="27" height="27" viewBox="0 0 27 27" fill="none" xmlns="http://www.w3.org/2000/svg">
<path d="M25.5 13.5C25.5 20.1274 20.1274 25.5 13.5 25.5C6.87258 25.5 1.5 20.1274 1.5 13.5C1.5 6.87258 6.87258 1.5 13.5 1.5C20.1274 1.5 25.5 6.87258 25.5 13.5Z" fill="#DAC8D9" stroke="black" stroke-width="3"/>
<line x1="13.96" y1="0.540003" x2="13.96" y2="25.92" stroke="black" stroke-width="2"/>
<path d="M7.56 2.69999C5.94 10.8 5.94 15.12 7.56 24.3" stroke="black" stroke-width="2"/>
<path d="M24.3 7.55999C15.66 5.39999 11.34 5.39999 2.70005 7.55999" stroke="black" stroke-width="2"/>
<path d="M24.84 18.9C15.768 20.34 11.232 20.34 2.16003 18.9" stroke="black" stroke-width="2"/>
<path d="M25.92 12.96C19.2375 12.96 11.34 12.96 1.61998 12.96" stroke="black" stroke-width="2"/>
<path d="M19.44 2.69999C21.06 10.8 21.06 15.66 19.44 24.3" stroke="black" stroke-width="2"/>
</svg>
