<svg xmlns="http://www.w3.org/2000/svg" xmlns:xlink="http://www.w3.org/1999/xlink" width="280" height="280" viewBox="0 0 280 280">
  <defs>
    <filter id="Rectangle_2" x="10.5" y="97.5" width="174" height="139" filterUnits="userSpaceOnUse">
      <feOffset dx="-10" dy="7" input="SourceAlpha"/>
      <feGaussianBlur stdDeviation="7.5" result="blur"/>
      <feFlood flood-opacity="0.161"/>
      <feComposite operator="in" in2="blur"/>
      <feComposite in="SourceGraphic"/>
    </filter>
    <filter id="Rectangle_3" x="83" y="58" width="159" height="124" filterUnits="userSpaceOnUse">
      <feOffset dx="-10" dy="7" input="SourceAlpha"/>
      <feGaussianBlur stdDeviation="5" result="blur-2"/>
      <feFlood flood-opacity="0.161"/>
      <feComposite operator="in" in2="blur-2"/>
      <feComposite in="SourceGraphic"/>
    </filter>
    <clipPath id="clip-Android_Wear_1">
      <rect width="280" height="280"/>
    </clipPath>
  </defs>
  <g id="Android_Wear_1" data-name="Android Wear – 1" clip-path="url(#clip-Android_Wear_1)">
    <rect width="280" height="280" fill="rgba(92,89,89,0.0)"/>
    <g id="Group_5" data-name="Group 5">
      <g transform="matrix(1, 0, 0, 1, 0, 0)" filter="url(#Rectangle_2)">
        <rect id="Rectangle_2-2" data-name="Rectangle 2" width="129" height="94" rx="20" transform="translate(43 113)" fill="#f5f5f5"/>
      </g>
      <g id="Group_4" data-name="Group 4">
        <rect id="Rectangle_9" data-name="Rectangle 9" width="16" height="2" rx="1" transform="translate(57 131)" fill="#aa0ed8"/>
        <rect id="Rectangle_13" data-name="Rectangle 13" width="10" height="2" rx="1" transform="translate(57 143)" fill="#aa0ed8"/>
        <rect id="Rectangle_23" data-name="Rectangle 23" width="10" height="2" rx="1" transform="translate(57 175)" fill="#aa0ed8"/>
        <rect id="Rectangle_10" data-name="Rectangle 10" width="22" height="2" rx="1" transform="translate(78 131)" fill="#76b7d0"/>
        <rect id="Rectangle_14" data-name="Rectangle 14" width="16" height="2" rx="1" transform="translate(73 143)" fill="#76b7d0"/>
        <rect id="Rectangle_22" data-name="Rectangle 22" width="32" height="2" rx="1" transform="translate(73 175)" fill="#76b7d0"/>
        <rect id="Rectangle_15" data-name="Rectangle 15" width="11" height="2" rx="1" transform="translate(70 153)" fill="#7e76d0"/>
        <rect id="Rectangle_16" data-name="Rectangle 16" width="21" height="2" rx="1" transform="translate(70 158)" fill="#7e76d0"/>
        <rect id="Rectangle_24" data-name="Rectangle 24" width="16" height="2" rx="1" transform="translate(70 185)" fill="#7e76d0"/>
        <rect id="Rectangle_19" data-name="Rectangle 19" width="8" height="2" rx="1" transform="translate(70 163)" fill="#7e76d0"/>
        <rect id="Rectangle_11" data-name="Rectangle 11" width="7" height="2" rx="1" transform="translate(105 131)" fill="#aa0ed8"/>
        <rect id="Rectangle_21" data-name="Rectangle 21" width="7" height="2" rx="1" transform="translate(86 163)" fill="#aa0ed8"/>
        <rect id="Rectangle_25" data-name="Rectangle 25" width="7" height="2" rx="1" transform="translate(70 190)" fill="#aa0ed8"/>
        <rect id="Rectangle_12" data-name="Rectangle 12" width="24" height="2" rx="1" transform="translate(117 131)" fill="#dfd015"/>
        <rect id="Rectangle_17" data-name="Rectangle 17" width="15" height="2" rx="1" transform="translate(101 153)" fill="#dfd015"/>
        <rect id="Rectangle_18" data-name="Rectangle 18" width="11" height="2" rx="1" transform="translate(101 158)" fill="#dfd015"/>
        <rect id="Rectangle_26" data-name="Rectangle 26" width="11" height="2" rx="1" transform="translate(94 185)" fill="#dfd015"/>
        <rect id="Rectangle_20" data-name="Rectangle 20" width="11" height="2" rx="1" transform="translate(101 163)" fill="#dfd015"/>
      </g>
    </g>
    <g id="Group_3" data-name="Group 3" transform="translate(0 -7)">
      <g transform="matrix(1, 0, 0, 1, 0, 7)" filter="url(#Rectangle_3)">
        <rect id="Rectangle_3-2" data-name="Rectangle 3" width="129" height="94" rx="20" transform="translate(108 66)" fill="#f5f5f5"/>
      </g>
      <rect id="Rectangle_4" data-name="Rectangle 4" width="68" height="2" rx="1" transform="translate(138 120)" fill="#c9c9c9"/>
      <rect id="Rectangle_5" data-name="Rectangle 5" width="45" height="2" rx="1" transform="translate(150 131)" fill="#c9c9c9"/>
      <rect id="Rectangle_6" data-name="Rectangle 6" width="57" height="2" rx="1" transform="translate(144 140)" fill="#c9c9c9"/>
      <rect id="Rectangle_7" data-name="Rectangle 7" width="53" height="2" rx="1" transform="translate(146 151)" fill="#c9c9c9"/>
      <g id="Group_2" data-name="Group 2">
        <circle id="Ellipse_15" data-name="Ellipse 15" cx="2" cy="2" r="2" transform="translate(175 88)" fill="none" stroke="#c9c9c9" stroke-miterlimit="10" stroke-width="2"/>
        <path id="Path_15" data-name="Path 15" d="M62.953,241.376l-5.3-4.935a1.967,1.967,0,0,0-2.562-.071l-7.1,5.89" transform="translate(112.201 -142.899)" fill="none" stroke="#c9c9c9" stroke-linecap="round" stroke-linejoin="round" stroke-width="2"/>
        <path id="Path_16" data-name="Path 16" d="M224,306.5l7.2-6.727a1.968,1.968,0,0,1,2.518-.109l4.3,3.346" transform="translate(-53.519 -202.779)" fill="none" stroke="#c9c9c9" stroke-linecap="round" stroke-linejoin="round" stroke-width="2"/>
      </g>
    </g>
  </g>
</svg>
